<svg xmlns="http://www.w3.org/2000/svg" viewBox="0 0 480 560">
  <defs>
    <linearGradient id="g" x1="0" y1="0" x2="1" y2="1">
      <stop offset="0" stop-color="#a5b4fc"/>
      <stop offset="1" stop-color="#c7d2fe"/>
    </linearGradient>
  </defs>
  <rect width="480" height="560" fill="url(#g)"/>
  <!-- shadow -->
  <ellipse cx="240" cy="500" rx="140" ry="24" fill="#000" opacity=".08"/>
  <!-- body -->
  <rect x="175" y="225" width="130" height="170" rx="32" fill="#2962ff"/>
  <!-- head -->
  <circle cx="240" cy="170" r="60" fill="#ffd6a5"/>
  <!-- hair -->
  <path d="M180,170c10-45,60-70,120-20c-8-30-40-50-80-50s-56,18-60,42z" fill="#0f172a"/>
  <!-- eyes -->
  <circle cx="218" cy="172" r="6" fill="#111827"/>
  <circle cx="262" cy="172" r="6" fill="#111827"/>
  <!-- smile -->
  <path d="M215,190c18,18,32,18,50,0" stroke="#111827" stroke-width="6" fill="none" stroke-linecap="round"/>
  <!-- laptop -->
  <rect x="120" y="320" width="240" height="28" rx="8" fill="#111827" opacity=".08"/>
  <rect x="140" y="268" width="200" height="120" rx="12" fill="#fff"/>
  <rect x="148" y="276" width="184" height="8" rx="4" fill="#e5e7eb"/>
  <rect x="148" y="292" width="120" height="8" rx="4" fill="#e5e7eb"/>
</svg>
